<svg viewBox="173.0173 71.35681818181818 568.9826999999999 63.7159090909091" xmlns:xlink="http://www.w3.org/1999/xlink" xmlns="http://www.w3.org/2000/svg" data-name="Layer 1" id="Layer_1" style="max-height: 500px"  height="127.43">
  <defs>
    <style>
      .cls-1 {
        fill: url(#linear-gradient-5);
      }

      .cls-2 {
        fill: url(#linear-gradient-6);
      }

      .cls-3 {
        fill: url(#linear-gradient-4);
      }

      .cls-4 {
        fill: url(#linear-gradient-3);
      }

      .cls-5 {
        fill: url(#linear-gradient-2);
      }

      .cls-6 {
        fill: #072595;
      }

      .cls-7 {
        fill: url(#linear-gradient);
      }

      .cls-8 {
        fill: #221f1f;
      }
    </style>
    <linearGradient gradientUnits="userSpaceOnUse" y2="137.57" x2="63.54" y1="76.75" x1="72.86" id="linear-gradient">
      <stop stop-color="#123ff4" offset="0"/>
      <stop stop-color="#072698" offset="1"/>
    </linearGradient>
    <linearGradient gradientUnits="userSpaceOnUse" y2="80.34" x2="28.55" y1="83.48" x1="53.15" id="linear-gradient-2">
      <stop stop-color="#728df8" offset="0"/>
      <stop stop-color="#6c87f2" offset=".16"/>
      <stop stop-color="#5b77e3" offset=".38"/>
      <stop stop-color="#405cc9" offset=".62"/>
      <stop stop-color="#1a37a6" offset=".88"/>
      <stop stop-color="#072595" offset="1"/>
    </linearGradient>
    <linearGradient xlink:href="#linear-gradient" y2="114.84" x2="149.11" y1="125.42" x1="84.96" id="linear-gradient-3"/>
    <linearGradient gradientUnits="userSpaceOnUse" y2="173.09" x2="108.22" y1="148.56" x1="104.94" id="linear-gradient-4">
      <stop stop-color="#f37c20" offset="0"/>
      <stop stop-color="#f37c20" offset="0"/>
      <stop stop-color="#eeec80" offset="1"/>
      <stop stop-color="#eeec80" offset="1"/>
    </linearGradient>
    <linearGradient gradientUnits="userSpaceOnUse" y2="93.8" x2="127.04" y1="44.47" x1="92.45" id="linear-gradient-5">
      <stop stop-color="#072698" offset="0"/>
      <stop stop-color="#123ff4" offset=".98"/>
    </linearGradient>
    <linearGradient gradientUnits="userSpaceOnUse" y2="69.3" x2="137.05" y1="53.71" x1="156.27" id="linear-gradient-6">
      <stop stop-color="#f37c20" offset="0"/>
      <stop stop-color="#f19838" offset=".16"/>
      <stop stop-color="#f0bc57" offset=".41"/>
      <stop stop-color="#eed66d" offset=".63"/>
      <stop stop-color="#eee67b" offset=".84"/>
      <stop stop-color="#eeec80" offset="1"/>
      <stop stop-color="#eeec80" offset="1"/>
    </linearGradient>
  </defs>
  <g>
    <polygon points="179.23 88.31 199.84 88.31 199.84 129.47 213.19 129.47 213.19 88.31 233.8 88.31 233.8 76.52 179.23 76.52 179.23 88.31" class="cls-8"/>
    <path d="M255.54,110.51h26.5v-8.7h-26.5l-1.5-9.32h29.68v-9.63h-42.33l2.26,14.63c.89,5.75.89,11.61,0,17.36l-2.26,14.63h42.64v-9.63h-29.99l1.5-9.32Z" class="cls-8"/>
    <path d="M313.12,82.85l-21.57,46.62h12.56l4.14-9.38h24.96l4.15,9.38h12.49l-21.51-46.62h-15.23ZM312.45,110.57l8.26-18.73,8.29,18.73h-16.55Z" class="cls-8"/>
    <path d="M549.56,110.51h26.5v-8.7h-26.5l-1.5-9.32h29.68v-9.63h-42.33l2.26,14.63c.89,5.75.89,11.61,0,17.36l-2.26,14.63h42.64v-9.63h-29.99l1.5-9.32Z" class="cls-8"/>
    <path d="M607.23,82.85l-21.57,46.62h12.56l4.14-9.38h24.96l4.15,9.38h12.49l-21.5-46.62h-15.23ZM606.55,110.57l8.26-18.73,8.29,18.73h-16.55Z" class="cls-8"/>
    <polygon points="660.79 118.57 644.7 82.85 632.09 82.85 654.03 129.47 667.27 129.47 689.15 82.85 676.78 82.85 660.79 118.57" class="cls-8"/>
    <path d="M709.27,119.83l1.5-9.32h26.5v-8.7h-26.5l-1.5-9.32h29.68v-9.63h-42.33l2.26,14.63c.89,5.75.89,11.61,0,17.36l-2.26,14.63h42.64v-9.63h-29.99Z" class="cls-8"/>
    <g>
      <path d="M443.02,92.18c-1.14,1.53-2.05,3.05-2.77,4.58l-2.7-8.63-3.64-11.61h14.11l2.56,8.73c-2.39,1.49-5.16,3.71-7.56,6.93Z" class="cls-8"/>
      <path d="M527.6,76.52l-16.6,52.96h-17.02l-13.21-38.02-13.17,38.02h-17.09l-8.32-26.48c.28-.38.55-.76.83-1.14,3.26-4.33,7.18-6.9,10.02-8.32l6.93,23.6,13.76-40.62h14.11l13.8,40.59,11.92-40.59h14.04Z" class="cls-8"/>
    </g>
    <path d="M422.79,114.47l-6.1-20.78-12.12,35.8h-12.45l-12.15-35.77-10.47,35.77h-12.36l14.59-46.63h14.98l11.66,33.48,11.6-33.48h15.04l7.29,23.31c-.24.34-.46.64-.7.98-2.87,3.84-6.32,6.07-8.82,7.32Z" class="cls-8"/>
    <path d="M439.6,129.48h-12.42l-2.26-7.69c2.14-1.34,4.55-3.3,6.68-6.13,1.01-1.31,1.8-2.65,2.41-4l2.38,7.57,3.2,10.25Z" class="cls-8"/>
  </g>
  <g>
    <g>
      <path d="M89.13,79.23c-.54-.32-1.1-.64-1.69-.96-1.15-.62-2.24-1.12-3.31-1.58v-.02c-.13-.06-.26-.11-.4-.17,0,0,0,0,0,0h0c-5.39-2.3-9.6-3.5-15.54-1.61-2.25.7-4.33,1.86-6.12,3.4-1.81,1.56-3.3,3.46-4.49,5.52-1.31,2.26-2.29,4.7-3.05,7.2-.83,2.75-1.4,5.58-1.79,8.42-.42,3.05-.63,6.12-.71,9.2-.08,3.18,0,6.35.19,9.52.19,3.14.5,6.28.9,9.4.39,2.96.86,5.91,1.44,8.84.22,1.12.47,2.24.68,3.37.04.19.07.38.14.56.36.95,1.4,1.58,2.39,1.58,1.21,0,2.26-.85,2.53-2.03.24-1.04.09-2.24.11-3.31.02-1.13.04-2.27.08-3.4.07-2.25.17-4.5.31-6.74.25-4.1.57-8.22,1.1-12.3,1.24-9.62,4.22-19.07,8.64-27.68,2.64-5.21,7.16-6.84,12.49-7.94-.11.32-.23.64-.34.96,2.15-.08,4.3-.16,6.44-.24Z" class="cls-7"/>
      <circle r="12.4" cy="81.97" cx="41.33" class="cls-5"/>
      <path d="M95,83.64c-.07-.1-.2-.2-.3-.3-1.81-1.61-3.92-3.18-6.41-4.62-4.16-2.41-9.4-1.32-13.4.9-2.19,1.22-3.79,3.16-5.15,5.22-5.6,8.51-6.67,19.47-7.84,29.28,2.75-18.7,13.67-30.99,30.69-26.87.03,0,.1.03.13.03.13.03.3.07.44.1.03,0,.07.03.1.03h.2c1.21,0,2.21-1.01,2.21-2.21,0-.64-.27-1.17-.67-1.57Z" class="cls-6"/>
    </g>
    <g>
      <g>
        <path d="M80.88,111.3c-.04.63-.06,1.27-.07,1.94-.02,1.3.05,2.51.13,3.66h-.02c.01.15.03.29.04.44,0,0,0,0,0,0h0c.46,5.84,1.34,10.13,5.77,14.52,1.67,1.67,3.66,2.98,5.85,3.85,2.22.88,4.6,1.32,6.98,1.43,2.61.12,5.23-.14,7.79-.63,2.82-.53,5.59-1.34,8.29-2.31,2.89-1.04,5.72-2.27,8.48-3.63,2.85-1.4,5.63-2.94,8.35-4.58,2.7-1.62,5.34-3.35,7.92-5.16,2.44-1.71,4.83-3.5,7.16-5.37.89-.72,1.77-1.45,2.67-2.17.15-.12.3-.24.43-.39.68-.76.75-1.97.29-2.85-.56-1.07-1.8-1.6-2.97-1.3-1.04.27-2.03.96-2.99,1.44-1.01.51-2.03,1.01-3.05,1.51-2.03.98-4.07,1.93-6.12,2.85-3.75,1.67-7.55,3.3-11.4,4.72-9.1,3.36-18.85,5.09-28.53,5.16-5.84.08-9.38-3.17-12.82-7.39.34-.05.67-.1,1.01-.14-1.07-1.87-2.13-3.73-3.2-5.6Z" class="cls-4"/>
        <path d="M82.07,104.06c-.06.11-.08.27-.13.41-.59,2.35-1.01,4.95-1.12,7.82-.21,4.8,3.18,8.94,7.01,11.46,2.09,1.38,4.55,1.9,7.01,2.15,10.13,1.02,20.34-3.11,29.59-6.61-17.84,6.22-33.8,2.24-38.03-14.76-.02-.03-.02-.1-.03-.13-.03-.13-.08-.3-.11-.43-.02-.03,0-.07-.02-.1l-.09-.18c-.56-1.07-1.91-1.49-2.98-.94-.56.29-.92.78-1.09,1.32Z" class="cls-6"/>
      </g>
      <circle r="12.4" cy="152.42" cx="105.45" class="cls-3"/>
    </g>
    <g>
      <path d="M116.9,104.63c.58-.24,1.17-.51,1.77-.79,1.18-.56,2.23-1.14,3.23-1.73v.02c.14-.08.26-.15.39-.23,0,0,0,0,0,0h0c5.04-2.99,8.5-5.66,10.5-11.57.76-2.23,1.06-4.6.88-6.94-.18-2.38-.84-4.71-1.79-6.89-1.04-2.4-2.43-4.63-3.99-6.72-1.72-2.3-3.67-4.43-5.73-6.43-2.21-2.14-4.56-4.14-6.99-6.02-2.51-1.94-5.12-3.77-7.79-5.49-2.65-1.71-5.36-3.32-8.11-4.84-2.61-1.44-5.27-2.8-7.97-4.07-1.04-.49-2.09-.95-3.12-1.44-.17-.08-.35-.17-.54-.22-.98-.28-2.1.19-2.69.99-.72.97-.65,2.32.14,3.24.7.81,1.75,1.4,2.6,2.05.9.68,1.8,1.38,2.69,2.08,1.77,1.39,3.52,2.8,5.25,4.24,3.15,2.63,6.29,5.33,9.26,8.16,7.02,6.69,12.86,14.69,17.19,23.35,2.64,5.21,1.28,9.82-.99,14.77-.19-.28-.38-.56-.57-.84-1.21,1.78-2.41,3.56-3.62,5.34Z" class="cls-1"/>
      <path d="M109.87,106.74c.12,0,.28-.04.42-.06,2.37-.51,4.89-1.27,7.51-2.43,4.41-1.93,6.63-6.79,7.2-11.33.32-2.49-.3-4.92-1.15-7.24-3.55-9.55-11.74-16.9-18.96-23.66,13.44,13.28,16.88,29.37,3.48,40.64-.02.03-.09.06-.11.09-.11.09-.23.2-.34.29-.02.03-.07.03-.09.06l-.12.16c-.71.97-.5,2.38.47,3.09.51.38,1.1.48,1.67.39Z" class="cls-6"/>
      <circle r="12.4" cy="64.46" cx="143.01" class="cls-2"/>
    </g>
  </g>
</svg>
