<?xml version="1.0" encoding="UTF-8"?>
<svg version="1.1" xmlns="http://www.w3.org/2000/svg" width="512" height="512">
<path d="M0 0 C1.43500112 0.7107313 2.87022618 1.4210106 4.30566406 2.13085938 C16.02634477 7.97465695 27.39281123 14.35819819 38.57275391 21.18261719 C40.60557581 22.42254201 42.64789259 23.64263402 44.69921875 24.8515625 C57.5484406 32.53264715 69.61732702 41.44795329 81.3984375 50.6640625 C83.19490558 52.05148862 85.04886518 53.36591012 86.9375 54.625 C87.64132812 53.86316406 88.34515625 53.10132812 89.0703125 52.31640625 C96.32461781 44.65880737 103.73874145 38.8334295 112.9375 33.625 C113.54279541 33.28178711 114.14809082 32.93857422 114.77172852 32.58496094 C134.74886532 21.86933262 158.24372096 22.70580633 179.38574219 28.79052734 C189.80823381 32.19887755 198.83578958 38.3161616 206.9375 45.625 C207.62070312 46.22699219 208.30390625 46.82898438 209.0078125 47.44921875 C224.76489448 62.18672484 233.59512082 82.88131492 234.46118164 104.28881836 C234.81371879 128.34338144 226.15096733 149.31613387 209.859375 166.86328125 C199.76918934 176.47206493 187.45393301 183.42373955 173.9375 186.625 C172.82632812 186.92019531 171.71515625 187.21539062 170.5703125 187.51953125 C162.55222603 189.625 162.55222603 189.625 158.9375 189.625 C158.875625 190.759375 158.81375 191.89375 158.75 193.0625 C158.21129852 198.02172247 156.90599759 202.66847388 155.5 207.4375 C155.28255127 208.17863037 155.06510254 208.91976074 154.84106445 209.68334961 C153.79220057 213.1523654 152.72313437 216.46068979 150.9375 219.625 C152.8544986 219.31454268 154.77108723 219.00155329 156.6875 218.6875 C157.75484375 218.51347656 158.8221875 218.33945313 159.921875 218.16015625 C162.7809609 217.70795265 162.7809609 217.70795265 164.890625 217.05859375 C175.14279061 214.88685638 188.31244727 218.55658115 197.0625 223.9375 C210.20459185 233.32754448 216.90055568 244.89480746 219.66918945 260.66308594 C221.28683524 272.49147682 217.6347134 285.71733679 210.77734375 295.34375 C199.012692 309.93091905 182.10006066 320.55146011 166.890625 331.24755859 C165.56716107 332.18093153 164.24693454 333.11890881 162.9296875 334.06103516 C143.04580424 348.26181414 121.71264441 360.56410899 99.9375 371.625 C100.114021 372.26526123 100.29054199 372.90552246 100.47241211 373.56518555 C101.27507101 376.4804659 102.07506023 379.39647241 102.875 382.3125 C103.15279297 383.31990234 103.43058594 384.32730469 103.71679688 385.36523438 C103.98427734 386.34169922 104.25175781 387.31816406 104.52734375 388.32421875 C104.77347412 389.21971436 105.01960449 390.11520996 105.27319336 391.0378418 C110.03270735 409.57388362 105.18670078 430.92860555 95.953125 447.46875 C83.36540987 467.17974578 65.99027004 480.4899578 43.05566406 486.13208008 C22.85053704 490.50636665 0.15346809 488.52368373 -17.84765625 477.8203125 C-38.5108636 463.71007856 -52.85452765 446.39278895 -58.03076172 421.42919922 C-60.41116091 408.1726904 -59.48035753 396.0358293 -55.9375 383.1015625 C-54.89978427 379.5759929 -54.89978427 379.5759929 -55.0625 375.625 C-57.19275692 373.68094229 -57.19275692 373.68094229 -60 371.9375 C-71.40740001 363.96834572 -80.80064653 353.14870693 -87.0625 340.625 C-87.06660889 341.22223877 -87.07071777 341.81947754 -87.07495117 342.43481445 C-87.30552935 361.72775219 -88.38919448 380.79852414 -102.0625 395.625 C-107.86388125 401.08328881 -114.28189222 405.67292581 -122.0625 407.625 C-123.09632813 407.89957031 -124.13015625 408.17414063 -125.1953125 408.45703125 C-137.78237571 411.59662902 -151.27276406 411.28636724 -162.8125 404.63671875 C-174.1462053 397.37641446 -182.60408724 387.63894783 -185.72265625 374.39453125 C-186.20635726 372.07885636 -186.67313172 369.75959645 -187.125 367.4375 C-187.37612549 366.20298096 -187.62725098 364.96846191 -187.88598633 363.6965332 C-188.62924664 360.0092671 -189.34910889 356.31814743 -190.0625 352.625 C-190.26262695 351.61018555 -190.46275391 350.59537109 -190.66894531 349.54980469 C-205.31211119 275.00044705 -205.31211119 275.00044705 -198.0625 249.625 C-199.34125 249.563125 -200.62 249.50125 -201.9375 249.4375 C-219.85433245 247.58228189 -235.62818981 240.61911613 -249.0625 228.625 C-250.20138672 227.60986328 -250.20138672 227.60986328 -251.36328125 226.57421875 C-267.93296088 210.92030725 -276.8755996 189.33501409 -277.6875 166.625 C-276.90242886 146.29578949 -269.84592594 126.6937851 -256.0625 111.625 C-255.4953125 110.96628906 -254.928125 110.30757813 -254.34375 109.62890625 C-250.12457027 105.03037045 -245.27460822 101.44439106 -240.1875 97.875 C-239.53974609 97.41488525 -238.89199219 96.95477051 -238.22460938 96.48071289 C-224.14449449 86.88714901 -202.46697457 81.07132212 -185.625 84.05712891 C-164.84655571 88.02318495 -147.55508824 94.75216526 -133.0625 110.625 C-131.76892578 110.06232422 -131.76892578 110.06232422 -130.44921875 109.48828125 C-123.13299749 106.39025681 -115.81322849 103.83284736 -108.125 101.8125 C-107.34535889 101.6060083 -106.56571777 101.3995166 -105.76245117 101.18676758 C-76.35487225 93.72121204 -47.80197674 103.70717892 -21.0625 115.625 C-28.31362157 108.71803968 -35.65312016 102.21732964 -43.6640625 96.19921875 C-48.10517425 92.86120501 -52.42031192 89.36709357 -56.74414062 85.87939453 C-60.0944337 83.18151776 -63.47989226 80.56007542 -66.9375 78 C-76.79850743 70.35725322 -83.65402606 61.30604044 -86.3125 49.125 C-86.48523438 48.40441406 -86.65796875 47.68382812 -86.8359375 46.94140625 C-89.60576818 34.78492715 -87.30596369 21.16082384 -80.75 10.5 C-77.59347556 6.07014298 -74.22659937 2.12882992 -70.0625 -1.375 C-69.44246094 -1.90867187 -68.82242188 -2.44234375 -68.18359375 -2.9921875 C-47.71822545 -18.60334131 -20.62682266 -10.43090978 0 0 Z " fill="#FDFEFE" transform="translate(278.0625,18.375)"/>
<path d="M0 0 C1.22074219 0.43828125 2.44148438 0.8765625 3.69921875 1.328125 C21.25629046 7.98919405 40.8272755 17.13433262 53 32 C53.75 35.125 53.75 35.125 53 38 C51.125 40.9375 51.125 40.9375 48 43 C43.18132771 43.33579598 38.62226237 42.17495607 34 40.9375 C16.87196701 36.98022959 -1.4405251 40.778597 -16.39453125 49.609375 C-40.05288413 64.65601105 -53.16020024 92.18402259 -59.1328125 118.75 C-64.15184226 142.6374794 -65.83975201 167.73010604 -66.26953125 192.10546875 C-66.29469818 193.47654533 -66.29469818 193.47654533 -66.32037354 194.87532043 C-66.39549491 199.32269879 -66.44084467 203.76806097 -66.44580078 208.21606445 C-66.46228133 209.83154589 -66.47903169 211.4470246 -66.49609375 213.0625 C-66.4877803 213.79417892 -66.47946686 214.52585785 -66.47090149 215.27970886 C-66.54309344 220.12557991 -67.5539265 222.59853456 -71 226 C-74.13400885 227.56700442 -77.63155095 227.85164561 -81 227 C-85.98178545 222.71270137 -86.42387162 216.71232859 -87.5 210.5625 C-87.81191284 208.8609375 -87.81191284 208.8609375 -88.13012695 207.125 C-90.33609563 194.73990512 -92.03643368 182.27499364 -93.54174805 169.78686523 C-93.85958607 167.16034122 -94.19425994 164.54001021 -94.54614258 161.91821289 C-96.15794638 149.42357596 -96.35528663 137.02392138 -96.3125 124.4375 C-96.31134186 123.38228149 -96.31018372 122.32706299 -96.30899048 121.23986816 C-96.26567583 101.2863793 -95.09967416 82.36300861 -90 63 C-89.80833252 62.25089355 -89.61666504 61.50178711 -89.41918945 60.72998047 C-83.56863465 38.17172217 -73.43770486 17.813448 -53.3125 4.8125 C-36.87612375 -4.34670203 -17.96591024 -6.47732372 0 0 Z " fill="#103BE4" transform="translate(216,161)"/>
<path d="M0 0 C3.85313937 2.95573538 4.73462288 5.73428768 5.8125 10.375 C10.58727739 28.19713422 21.52533772 44.71582667 37.65234375 54.23046875 C60.60758265 67.11533912 85.6962025 67.27913545 111 62 C111.82387207 61.82839355 112.64774414 61.65678711 113.49658203 61.47998047 C124.84337763 59.03776768 135.36929382 55.57410109 145.97192383 50.87573242 C148.09635815 49.95839212 150.23976765 49.10917157 152.39453125 48.265625 C159.40875585 45.47852031 166.30167389 42.41362774 173.20141602 39.35668945 C175.53089565 38.32647703 177.86399514 37.30479457 180.19726562 36.28320312 C181.73767588 35.60313844 183.27739164 34.92149847 184.81640625 34.23828125 C185.57652008 33.90112091 186.33663391 33.56396057 187.11978149 33.21658325 C191.04399795 31.44393128 194.86109661 29.56833977 198.62451172 27.47412109 C199.37498276 27.05809128 200.1254538 26.64206146 200.89866638 26.21342468 C202.31008996 25.41922924 203.71232987 24.60837027 205.10243225 23.77742004 C210.03489 20.99000635 214.34910184 20.1838564 220 21 C222.90311491 22.62857665 223.64305772 23.80220711 224.58203125 26.953125 C225.06676575 30.65003342 224.71739353 33.04044063 222.4609375 36.05859375 C219.77676473 38.5672994 216.92913472 40.790941 214 43 C212.51683693 44.14832107 211.03377135 45.29676805 209.55078125 46.4453125 C190.06895309 61.38624878 169.42672915 76.92630221 147.1484375 87.44140625 C143.82935147 89.08447737 140.63490505 90.88381272 137.41967773 92.71923828 C129.47100071 97.24887277 121.65907474 100.98414752 113 104 C110.14082985 105.0492054 107.28946508 106.1188993 104.4375 107.1875 C103.75800293 107.43790039 103.07850586 107.68830078 102.37841797 107.94628906 C99.80924315 108.89965095 97.29893819 109.84396084 94.8671875 111.11328125 C92.50033413 112.23728902 90.27197404 112.59057837 87.6875 113 C84.47764292 113.53993622 81.50654248 114.1446341 78.375 115.0625 C59.72597776 120.24278396 34.77276168 119.01596751 17.7734375 109.71875 C1.3298253 99.52834244 -7.91075819 85.15536419 -13.23828125 66.8125 C-16.57441547 50.11472054 -16.15626551 31.53509272 -13.6875 14.75 C-13.56987305 13.9353125 -13.45224609 13.120625 -13.33105469 12.28125 C-12.61023169 7.94525078 -11.70461852 4.58761736 -9 1 C-5.90826248 -0.54586876 -3.40570448 -0.29359521 0 0 Z " fill="#0C2EB1" transform="translate(233,255)"/>
<path d="M0 0 C6.10545945 0.94739888 11.21854729 3.83317056 16.6640625 6.59765625 C18.41427286 7.45881553 20.20540329 8.23563473 22 9 C45.53669833 19.14512859 68.14578777 33.2281879 88.625 48.5625 C89.15996094 48.96001465 89.69492187 49.3575293 90.24609375 49.76708984 C105.91272101 61.43722436 122.34008337 74.28789127 134.625 89.5625 C135.39328125 90.49320312 136.1615625 91.42390625 136.953125 92.3828125 C152.21456352 111.24649514 161.69516942 131.72367048 159.34765625 156.48828125 C157.0841062 173.10920591 148.4680584 186.88805328 135.45703125 197.296875 C119.1776977 209.18596952 94.52111491 224.57283084 73.625 222.5625 C71.2421875 221.00390625 71.2421875 221.00390625 69.625 218.5625 C68.97265625 215.1953125 68.97265625 215.1953125 69.625 211.5625 C71.45408422 209.13328291 73.7064803 207.34165152 76.0625 205.4375 C86.10277032 196.72722634 92.67014622 186.97948298 97.625 174.5625 C97.97433594 173.73234375 98.32367188 172.9021875 98.68359375 172.046875 C105.64534539 153.67478354 101.47126837 133.1677126 93.81860352 115.79150391 C88.09851293 103.47408486 80.44965502 92.85031025 71.625 82.5625 C70.95082031 81.76457031 70.27664063 80.96664062 69.58203125 80.14453125 C60.43414091 69.62359921 49.96981024 60.25369203 39.08984375 51.5625 C36.75870509 49.67098971 34.53225066 47.70767675 32.3125 45.6875 C24.93101548 39.0637608 16.97902079 33.10505043 9.0859375 27.109375 C8.32345703 26.52953857 7.56097656 25.94970215 6.77539062 25.35229492 C5.28948855 24.22431668 3.80130169 23.09934015 2.31054688 21.9777832 C-6.9307171 14.97375157 -6.9307171 14.97375157 -8.4375 10.1875 C-8.375 6.5625 -8.375 6.5625 -6.375 3.125 C-3.375 0.5625 -3.375 0.5625 0 0 Z " fill="#0C30BA" transform="translate(238.375,46.4375)"/>
<path d="M0 0 C9.01504452 5.75608477 16.38126362 13.94227153 19.1875 24.5 C21.28076929 36.71433422 20.54822939 49.00451069 13.625 59.5 C6.66960177 68.68170771 -2.54123785 75.59718938 -14.01171875 77.96484375 C-27.47029803 79.728715 -39.68362947 76.45700518 -50.6171875 68.4765625 C-58.15172593 61.94968271 -63.54025573 52.28763407 -64.34277344 42.32177734 C-65.05852526 29.46486344 -64.02203177 19.65762657 -55.36328125 9.57421875 C-40.40087879 -6.40895803 -19.66949621 -11.04563301 0 0 Z " fill="#F28D2F" transform="translate(324.1875,387.75)"/>
<path d="M0 0 C10.15363981 6.43967109 16.04549682 14.56305237 18.8125 26.25 C19.3363768 28.91975676 19.64220057 31.53553033 19.8125 34.25 C19.86535156 35.03117187 19.91820313 35.81234375 19.97265625 36.6171875 C20.43328344 49.47469428 15.15220429 57.9408517 6.8125 67.25 C4.30196364 69.60562123 1.77233964 71.50045916 -1.1875 73.25 C-2.17363281 73.84554687 -2.17363281 73.84554687 -3.1796875 74.453125 C-7.74393115 76.97500281 -11.97732306 78.02756223 -17.1875 78.25 C-18.75177734 78.36214844 -18.75177734 78.36214844 -20.34765625 78.4765625 C-30.95959764 78.92313368 -40.34503841 76.83519541 -48.625 69.875 C-49.83434024 68.68852544 -51.0233781 67.48087201 -52.1875 66.25 C-52.72890625 65.72792969 -53.2703125 65.20585937 -53.828125 64.66796875 C-58.62992929 59.68427793 -60.862791 53.68023281 -63.1875 47.25 C-63.43628906 46.56292969 -63.68507812 45.87585938 -63.94140625 45.16796875 C-67.06181531 35.50124697 -64.24890858 24.40810717 -59.83203125 15.5234375 C-58.40240912 13.29276704 -56.89717354 11.27277038 -55.1875 9.25 C-54.40052734 8.31607422 -54.40052734 8.31607422 -53.59765625 7.36328125 C-39.46416866 -7.96739588 -17.78856044 -9.97439521 0 0 Z " fill="#5F7AE6" transform="translate(106.1875,148.75)"/>
<path d="M0 0 C9.13594634 6.52567596 15.68161101 16.05697092 17.96484375 27.140625 C19.57654569 39.06280375 17.05947517 50.49418011 9.86328125 60.26171875 C9.33089844 60.91785156 8.79851562 61.57398438 8.25 62.25 C7.74855469 62.87519531 7.24710937 63.50039062 6.73046875 64.14453125 C-1.18063621 72.97956088 -12.17788082 76.56327071 -23.75 77.25 C-35.3614464 77.3695296 -45.29501182 73.07746953 -53.75 65.25 C-62.01082354 57.09981249 -66.39601879 46.6342979 -66.88671875 35.01171875 C-66.38996591 23.16061532 -61.98510021 12.80572912 -53.75 4.25 C-46.89285714 -1.75 -46.89285714 -1.75 -43.75 -1.75 C-43.75 -2.41 -43.75 -3.07 -43.75 -3.75 C-28.33468751 -8.65487216 -13.9830973 -8.60136741 0 0 Z " fill="#EFD76F" transform="translate(453.75,90.75)"/>
<path d="M0 0 C0.33 0 0.66 0 1 0 C1.00257813 1.24394531 1.00515625 2.48789062 1.0078125 3.76953125 C1.27736779 19.5416868 5.65638057 28.82558092 16.94140625 39.90625 C29.57220726 51.57305642 45.89947714 53.82520469 62.53125 53.328125 C74.15643484 52.75104748 85.68765816 51.25335733 96.7668457 47.62744141 C100.02667645 46.71153838 102.63470956 46.64944891 106 47 C108.36660382 49.36660382 108.30990526 50.13963758 108.5625 53.375 C108.80759387 56.36614555 109.2226554 59.10210507 110 62 C110.3160272 63.43672868 110.62839469 64.87426622 110.9375 66.3125 C112.61450238 75.12719527 112.61450238 75.12719527 118 82 C111.89546745 84.72783884 106.13154719 86.51973726 99.52734375 87.56640625 C96.78960592 87.98624796 96.78960592 87.98624796 93.375 89.0625 C74.72597776 94.24278396 49.77276168 93.01596751 32.7734375 83.71875 C16.3298253 73.52834244 7.08924181 59.15536419 1.76171875 40.8125 C-0.15527299 31.21771059 -0.1373169 21.49921762 -0.0625 11.75 C-0.05798828 10.61175781 -0.05347656 9.47351563 -0.04882812 8.30078125 C-0.03720214 5.53379591 -0.02086431 2.76692842 0 0 Z " fill="#0F38D9" transform="translate(218,281)"/>
<path d="M0 0 C18.98488783 15.34948378 36.7060746 39.92740187 39.6875 64.55078125 C41.32437747 82.61781635 37.58305727 98.73836073 26 113 C17.62404924 122.61489347 6.99546268 128.78435185 -4 135 C-4 131.46894415 -3.49840789 131.11020995 -1.1875 128.625 C6.47337675 120.33990367 10.21859053 107.8846346 10.5 96.6875 C9.16572817 70.2544933 -9.36987885 43.89229457 -28 26 C-27.505 24.515 -27.505 24.515 -27 23 C-26.01 23.33 -25.02 23.66 -24 24 C-24 24.66 -24 25.32 -24 26 C-23.01 26.66 -22.02 27.32 -21 28 C-17.92207284 26.25306837 -15.43931507 24.55547293 -13 22 C-12.34 21.67 -11.68 21.34 -11 21 C-11 20.01 -11 19.02 -11 18 C-10.01 18 -9.02 18 -8 18 C-7.34 17.34 -6.68 16.68 -6 16 C-5.34 16 -4.68 16 -4 16 C-4.66 14.68 -5.32 13.36 -6 12 C-4.35 11.67 -2.7 11.34 -1 11 C-0.67 12.65 -0.34 14.3 0 16 C3.24849977 14.27773504 3.24849977 14.27773504 4 11 C2.83952393 9.10543489 1.46018344 7.51516489 0.03125 5.81640625 C-1 4 -1 4 -0.65625 1.77734375 C-0.4396875 1.19082031 -0.223125 0.60429688 0 0 Z " fill="#113CE4" transform="translate(358,121)"/>
<path d="M0 0 C4.54044454 3.07616089 8.78807947 6.49293148 13 10 C13.71027344 10.58265625 14.42054688 11.1653125 15.15234375 11.765625 C17.73744443 14.07700914 18.92192697 15.65222016 19.6875 19.0625 C18.71502807 23.21760735 17.57409279 24.64109876 14 27 C9.18132771 27.33579598 4.62226237 26.17495607 0 24.9375 C-17.12803299 20.98022959 -35.4405251 24.778597 -50.39453125 33.609375 C-73.09942935 48.04961689 -83.90358542 72.44592027 -92 97 C-92.33 97 -92.66 97 -93 97 C-92.17037207 67.29932009 -84.23195087 35.84954459 -66 12 C-65.48695313 11.30261719 -64.97390625 10.60523438 -64.4453125 9.88671875 C-48.48519583 -10.44665022 -20.96546604 -12.37139955 0 0 Z " fill="#082697" transform="translate(250,177)"/>
<path d="M0 0 C4.67457386 3.30170144 8.55802438 6.37113623 12 11 C14.19104379 13.25190611 16.41706548 15.4543307 18.7109375 17.6015625 C37.04225797 35.18466581 55.06879266 61.32956476 56.375 87.3125 C56.23556612 99.75310075 52.02989584 111.52404241 44 121 C43.27167969 121.99257812 42.54335938 122.98515625 41.79296875 124.0078125 C38.74971275 127.64214257 35.09446169 129.31544147 30.8125 131.1875 C30.05291992 131.52918213 29.29333984 131.87086426 28.51074219 132.22290039 C19.22426703 136.32809315 9.3486503 139.99560186 -1 139 C-3.3828125 137.44140625 -3.3828125 137.44140625 -5 135 C-5.65234375 131.6328125 -5.65234375 131.6328125 -5 128 C-3.17091578 125.57078291 -0.9185197 123.77915152 1.4375 121.875 C11.47777032 113.16472634 18.04514622 103.41698298 23 91 C23.34933594 90.16984375 23.69867188 89.3396875 24.05859375 88.484375 C31.01984342 70.11360824 26.84798406 49.60273293 19.19287109 32.22827148 C14.35980782 21.81688141 8.16261865 12.51351394 1.03125 3.5234375 C0 2 0 2 0 0 Z " fill="#082696" transform="translate(313,130)"/>
<path d="M0 0 C3.85313937 2.95573538 4.73462288 5.73428768 5.8125 10.375 C10.58727739 28.19713422 21.52533772 44.71582667 37.65234375 54.23046875 C56.9001304 65.03433087 77.28340714 66.88942111 99.00439453 64.22045898 C101.53216916 63.94121009 104.02098157 63.90170397 106.5625 63.9375 C107.83287109 63.95103516 107.83287109 63.95103516 109.12890625 63.96484375 C109.74636719 63.97644531 110.36382812 63.98804688 111 64 C98.955388 76.044612 69.36593613 79.09922235 53 80 C51.78280273 80.07371826 51.78280273 80.07371826 50.54101562 80.14892578 C35.10131838 80.96169475 17.76370706 80.13834234 5.19921875 70.0078125 C4.47347656 69.34523438 3.74773437 68.68265625 3 68 C2.14019531 67.23429687 1.28039062 66.46859375 0.39453125 65.6796875 C-6.02849864 59.62666967 -13.63060058 51.68457745 -14.14526367 42.37133789 C-14.17004334 38.93495722 -14.18566721 35.49897708 -14.1875 32.0625 C-14.19974609 30.88880859 -14.21199219 29.71511719 -14.22460938 28.50585938 C-14.25773201 8.53291108 -14.25773201 8.53291108 -9 1 C-5.90826248 -0.54586876 -3.40570448 -0.29359521 0 0 Z " fill="#092797" transform="translate(233,255)"/>
<path d="M0 0 C2.4375 1.0625 2.4375 1.0625 4 2 C4.33 1.34 4.66 0.68 5 0 C5.66 0 6.32 0 7 0 C7.66 0.66 8.32 1.32 9 2 C11.26377879 2.4263314 11.26377879 2.4263314 13.8125 2.5625 C17.27889008 2.84342307 20.60512936 3.20786352 24 4 C24 6.31 24 8.62 24 11 C24.66 11 25.32 11 26 11 C25.88291924 12.93799467 25.75579489 14.87538257 25.625 16.8125 C25.55539063 17.89144531 25.48578125 18.97039062 25.4140625 20.08203125 C25.09463859 23.10450466 24.64498132 25.93508888 24.05859375 28.90625 C22.64641824 36.44790913 22.05253111 44.04936882 21.4375 51.6875 C21.37174774 52.47326416 21.30599548 53.25902832 21.23825073 54.06860352 C20.43625052 63.75920651 19.89620446 73.42141852 19.7265625 83.14453125 C19.71003128 84.05611496 19.69350006 84.96769867 19.6764679 85.90690613 C19.60283524 90.34292095 19.55943878 94.77701013 19.55444336 99.21362305 C19.53789206 100.82991841 19.52106079 102.44621093 19.50390625 104.0625 C19.51221466 104.79422928 19.52052307 105.52595856 19.52908325 106.27986145 C19.45692259 111.12567546 18.44601736 113.59858998 15 117 C11.86599115 118.56700442 8.36844905 118.85164561 5 118 C0.01819363 113.71268337 -0.42384294 107.71236179 -1.5 101.5625 C-1.7072168 100.43247559 -1.91443359 99.30245117 -2.12792969 98.13818359 C-4.5574666 84.50040786 -6.42575475 70.76112767 -8 57 C-8.10820068 56.09894531 -8.21640137 55.19789063 -8.32788086 54.26953125 C-9.43788902 43.47599539 -9.10745836 32.58581385 -9.0625 21.75 C-9.05747533 19.63671981 -9.05291413 17.52343846 -9.04882812 15.41015625 C-9.03789833 10.27340858 -9.0206869 5.13671726 -9 0 C-5.88094953 -1.55952523 -3.35318513 -0.6359489 0 0 Z " fill="#0C2FB5" transform="translate(130,270)"/>
<path d="M0 0 C0.66 0.33 1.32 0.66 2 1 C1.67 2.98 1.34 4.96 1 7 C1.99 7 2.98 7 4 7 C5.89353366 8.89353366 7.4198632 10.84526801 9 13 C8.67 13.33 8.34 13.66 8 14 C8.825 14.598125 9.65 15.19625 10.5 15.8125 C11.7375 16.8953125 11.7375 16.8953125 13 18 C13 18.99 13 19.98 13 21 C13.66 21.33 14.32 21.66 15 22 C15.99112083 23.05341985 16.9452651 24.14202577 17.875 25.25 C18.4009375 25.87519531 18.926875 26.50039062 19.46875 27.14453125 C21.33814243 29.40973892 23.18238971 31.6930331 25 34 C24.67 34.33 24.34 34.66 24 35 C24.99 35.33 25.98 35.66 27 36 C32 41.34883721 32 41.34883721 32 45 C32.66 45 33.32 45 34 45 C36.18857448 46.73262146 36.99534051 47.98776883 38 50.625 C38.495 51.800625 38.495 51.800625 39 53 C39.99 53.33 40.98 53.66 42 54 C44.02994709 56.27600128 45.70280128 58.32634956 46.9375 61.125 C48.41188955 63.7268639 50.39962596 64.63138209 53 66 C47.07447136 72.66444348 38.08906082 75.05145538 29.4375 76 C17.36334602 76.5103809 6.91455685 72.52042737 -2.1875 64.8125 C-6.64380596 60.6432567 -9.55258187 56.5641302 -12 51 C-12.30550781 50.35417969 -12.61101562 49.70835937 -12.92578125 49.04296875 C-17.24594575 38.98988453 -16.74987607 28.02345396 -12.80859375 17.95703125 C-9.55146949 10.95465783 -5.43392608 5.46150946 0 0 Z " fill="#EFE87C" transform="translate(403,92)"/>
<path d="M0 0 C7.566192 4.82670869 13.50169009 10.7641854 16.8125 19.25 C17.17137789 21.75754424 17.08285164 23.70869458 16.8125 26.25 C16.1525 25.92 15.4925 25.59 14.8125 25.25 C12.29711756 25.92670466 9.87530891 26.7937645 7.41796875 27.65625 C4.4974883 28.32178677 2.69089508 27.94896946 -0.1875 27.25 C-1.52914079 27.5481424 -2.86601173 27.87243192 -4.1875 28.25 C-4.5175 27.92 -4.8475 27.59 -5.1875 27.25 C-5.8475 27.91 -6.5075 28.57 -7.1875 29.25 C-7.8475 29.25 -8.5075 29.25 -9.1875 29.25 C-9.8475 28.59 -10.5075 27.93 -11.1875 27.25 C-12.5075 28.57 -13.8275 29.89 -15.1875 31.25 C-16.5075 30.59 -17.8275 29.93 -19.1875 29.25 C-20.074375 29.930625 -20.96125 30.61125 -21.875 31.3125 C-25.1875 33.25 -25.1875 33.25 -27.8125 32.9375 C-28.59625 32.710625 -29.38 32.48375 -30.1875 32.25 C-32.20704441 32.58820153 -32.20704441 32.58820153 -34.1875 33.25 C-37.05941991 33.98638972 -38.8309453 34.3282681 -41.75 33.6875 C-44.15564654 33.00029335 -44.15564654 33.00029335 -46 34.1875 C-48.40975281 35.35795136 -49.61435752 35.33176263 -52.25 35.25 C-56.24239221 34.885978 -56.24239221 34.885978 -59.1875 37.25 C-62.1875 37.25 -62.1875 37.25 -64.1875 36.25 C-64.71320969 25.3853331 -62.51846565 17.90667298 -55.36328125 9.57421875 C-40.40087879 -6.40895803 -19.66949621 -11.04563301 0 0 Z " fill="#F27E22" transform="translate(324.1875,387.75)"/>
<path d="M0 0 C0.46612972 5.82662148 -0.66292458 8.30723769 -4 13 C-4 14.32 -4 15.64 -4 17 C-4 32 -4 32 -4.9921875 33.90234375 C-6.15582093 36.32432497 -6.20624403 37.89498761 -6.125 40.5625 C-6.10695312 41.32691406 -6.08890625 42.09132812 -6.0703125 42.87890625 C-6.04710937 43.57886719 -6.02390625 44.27882812 -6 45 C-6 45.99 -6 46.98 -6 48 C-5.773125 48.61875 -5.54625 49.2375 -5.3125 49.875 C-4.86137544 52.94264699 -6.44150055 54.40250092 -8 57 C-7.84311576 59.12816413 -7.84311576 59.12816413 -7 61 C-6.67 61.99 -6.34 62.98 -6 64 C-6.66 64.99 -7.32 65.98 -8 67 C-7.67 67.99 -7.34 68.98 -7 70 C-7.63028587 71.68076231 -8.29788106 73.34795544 -9 75 C-9 75.99 -9 76.98 -9 78 C-9.33 77.34 -9.66 76.68 -10 76 C-10.515625 76.515625 -11.03125 77.03125 -11.5625 77.5625 C-14 79 -14 79 -17.25 79.125 C-22.39823792 77.58052862 -25.27842656 74.77473877 -29 71 C-29.54914062 70.47277344 -30.09828125 69.94554687 -30.6640625 69.40234375 C-35.44467381 64.41334682 -37.67835682 58.42175264 -40 52 C-40.24878906 51.31292969 -40.49757812 50.62585938 -40.75390625 49.91796875 C-43.87431531 40.25124697 -41.06140858 29.15810717 -36.64453125 20.2734375 C-35.21490912 18.04276704 -33.70967354 16.02277038 -32 14 C-31.21302734 13.06607422 -31.21302734 13.06607422 -30.41015625 12.11328125 C-25.26160001 6.52861201 -18.51728559 1.20008636 -10.8125 0.125 C-7.1975977 0.00647861 -3.61550597 -0.07532304 0 0 Z " fill="#415DC8" transform="translate(83,144)"/>
<path d="M0 0 C1.7290774 -0.02725341 3.45828176 -0.04650987 5.1875 -0.0625 C6.15042969 -0.07410156 7.11335938 -0.08570313 8.10546875 -0.09765625 C10.86974516 -0.00439456 13.30601959 0.4052251 16 1 C17.43540577 1.20291076 18.87291997 1.39170237 20.3125 1.5625 C21.529375 1.706875 22.74625 1.85125 24 2 C24 2.66 24 3.32 24 4 C24.99 3.67 25.98 3.34 27 3 C32.32932349 4.19637874 32.32932349 4.19637874 34.3203125 6.58203125 C35.37163632 10.32208554 33.97567222 13.42764729 32.8125 17 C30.76653724 23.78497373 29.23052225 30.48897835 28.1875 37.5 C28.06415283 38.29921875 27.94080566 39.0984375 27.8137207 39.921875 C27.10583508 44.9336015 26.91583637 49.78152955 27.0559082 54.84130859 C26.98581801 57.54758597 26.26907657 59.62048143 25 62 C24.01 62 23.02 62 22 62 C22 59.69 22 57.38 22 55 C21.03900391 55.03480469 21.03900391 55.03480469 20.05859375 55.0703125 C14.57007623 55.18482702 10.28791807 54.57709837 5 53 C2.18545005 52.67029558 -0.62240524 52.44201152 -3.44921875 52.24609375 C-6 52 -6 52 -10 51 C-10 63.87 -10 76.74 -10 90 C-10.33 90 -10.66 90 -11 90 C-11.7919739 25.11022035 -11.7919739 25.11022035 -4 3 C-3.01 3 -2.02 3 -1 3 C-0.67 2.01 -0.34 1.02 0 0 Z " fill="#1138CE" transform="translate(131,219)"/>
<path d="M0 0 C6.10545945 0.94739888 11.21854729 3.83317056 16.6640625 6.59765625 C18.41427286 7.45881553 20.20540329 8.23563473 22 9 C36.68631946 15.33031011 50.62749522 23.56538098 64.1875 32 C65.01499756 32.50797119 65.84249512 33.01594238 66.69506836 33.53930664 C67.45698486 34.02004639 68.21890137 34.50078613 69.00390625 34.99609375 C69.6801001 35.41947021 70.35629395 35.84284668 71.05297852 36.27905273 C72.625 37.5625 72.625 37.5625 73.625 40.5625 C68.875 45.4375 68.875 45.4375 66.625 46.5625 C66.295 45.5725 65.965 44.5825 65.625 43.5625 C65.295 44.5525 64.965 45.5425 64.625 46.5625 C62.5 48 62.5 48 59.625 49.5625 C54.85712244 52.15242607 54.85712244 52.15242607 50.5625 55.4375 C48.625 56.5625 48.625 56.5625 45.80078125 55.890625 C42.41703089 54.47552645 40.50380303 52.96926667 37.875 50.4375 C32.9826228 45.86545702 27.89424421 41.68982585 22.625 37.5625 C21.5178633 36.6866602 20.41111382 35.81033077 19.3046875 34.93359375 C12.66700388 29.68435823 5.97481273 24.53804769 -0.8515625 19.53515625 C-7.0104234 14.72056685 -7.0104234 14.72056685 -8.4375 10.1875 C-8.375 6.5625 -8.375 6.5625 -6.375 3.125 C-3.375 0.5625 -3.375 0.5625 0 0 Z " fill="#0B2A9E" transform="translate(238.375,46.4375)"/>
<path d="M0 0 C-0.33 1.32 -0.66 2.64 -1 4 C-1.66 4 -2.32 4 -3 4 C-4.30577606 8.47941722 -3.58143659 12.18503802 -2.5625 16.625 C-1 23.69377729 -1 23.69377729 -1 27 C-0.84739214 28.73046409 -0.67951995 30.45962045 -0.5 32.1875 C-0.4071875 33.08855469 -0.314375 33.98960937 -0.21875 34.91796875 C-0.11046875 35.94857422 -0.11046875 35.94857422 0 37 C-9.82014419 42.39813914 -19.4264968 47.24053219 -30 51 C-31.52120877 51.62408565 -33.04209777 52.24895202 -34.5625 52.875 C-38.03547798 54.01161097 -38.75373538 54.14422793 -42 53 C-42.99 52.34 -43.98 51.68 -45 51 C-45 50.34 -45 49.68 -45 49 C-45.66 48.67 -46.32 48.34 -47 48 C-46.979375 46.96875 -46.95875 45.9375 -46.9375 44.875 C-46.99311835 41.42666235 -47.20217959 38.3508457 -48 35 C-48.66 34.67 -49.32 34.34 -50 34 C-50 31.03 -50 28.06 -50 25 C-50.66 24.67 -51.32 24.34 -52 24 C-52 23.01 -52 22.02 -52 21 C-52.99 20.34 -53.98 19.68 -55 19 C-54.154375 18.74605469 -53.30875 18.49210937 -52.4375 18.23046875 C-46.20564202 16.33966638 -40.06325995 14.377749 -34 12 C-35.32 11.34 -36.64 10.68 -38 10 C-36.85144531 9.75765625 -35.70289063 9.5153125 -34.51953125 9.265625 C-24.26980398 7.06759473 -14.00542873 4.86631276 -4.26953125 0.8828125 C-2 0 -2 0 0 0 Z " fill="#0C32C3" transform="translate(376,308)"/>
<path d="M0 0 C0.33 0 0.66 0 1 0 C1.00257813 1.24394531 1.00515625 2.48789062 1.0078125 3.76953125 C1.27736779 19.5416868 5.65638057 28.82558092 16.94140625 39.90625 C30.22544266 52.17643627 47.67152244 53.59887783 65 54 C61.36383344 55.9789756 58.11574371 56.5251065 54 57 C54.495 59.475 54.495 59.475 55 62 C54.01 62.66 53.02 63.32 52 64 C52.474375 64.40089844 52.94875 64.80179687 53.4375 65.21484375 C55.75393253 67.86136792 55.83996609 70.54728491 56.375 73.94140625 C56.87623292 76.37611315 56.87623292 76.37611315 60 78 C59.34 78 58.68 78 58 78 C57.7763932 80.9254644 57.7763932 80.9254644 59 83 C59.99 83.495 59.99 83.495 61 84 C60.34 84 59.68 84 59 84 C59.350625 84.78375 59.70125 85.5675 60.0625 86.375 C60.371875 87.24125 60.68125 88.1075 61 89 C60.67 89.66 60.34 90.32 60 91 C41.43470715 89.30071773 26.95359911 82.89186975 14.67578125 68.25 C12.02446829 64.69019519 9.93205154 60.98919995 8 57 C7.64164063 56.28070313 7.28328125 55.56140625 6.9140625 54.8203125 C0.34848949 40.94868832 -0.17848309 26.86348918 -0.0625 11.75 C-0.05798828 10.61175781 -0.05347656 9.47351563 -0.04882812 8.30078125 C-0.03720214 5.53379591 -0.02086431 2.76692842 0 0 Z " fill="#123DE9" transform="translate(218,281)"/>
<path d="M0 0 C0.99 0.495 0.99 0.495 2 1 C-0.07889657 10.77081387 -5.92254173 18.25698446 -14 24 C-24.50914329 30.30883284 -35.24482122 32.9433692 -47.4140625 30.2421875 C-56.64160304 27.54816992 -66.29180329 23.97477714 -71.3125 15.25 C-71.869375 14.1775 -72.42625 13.105 -73 12 C-69.67336847 8.67336847 -66.49940913 8.52321459 -62.0234375 8.2109375 C-59.93260151 8.11299421 -59.93260151 8.11299421 -58 7 C-57.67 7.66 -57.34 8.32 -57 9 C-56.01 9 -55.02 9 -54 9 C-53.34 8.34 -52.68 7.68 -52 7 C-50.125 6.62109375 -50.125 6.62109375 -48 6.4375 C-45.62030153 6.22315216 -44.15322664 6.07661332 -42 5 C-40.515 6.485 -40.515 6.485 -39 8 C-38.38125 7.2265625 -38.38125 7.2265625 -37.75 6.4375 C-37.1725 5.963125 -36.595 5.48875 -36 5 C-33.9375 5.4375 -33.9375 5.4375 -32 6 C-31.34 5.34 -30.68 4.68 -30 4 C-30 4.66 -30 5.32 -30 6 C-28.68 6.33 -27.36 6.66 -26 7 C-25.47792969 6.01966797 -25.47792969 6.01966797 -24.9453125 5.01953125 C-23 3 -23 3 -19.6796875 2.57421875 C-18.42414063 2.61160156 -17.16859375 2.64898437 -15.875 2.6875 C-14.61429687 2.71199219 -13.35359375 2.73648437 -12.0546875 2.76171875 C-9 3 -9 3 -8 4 C-5.83333333 3.16666667 -5.83333333 3.16666667 -5 1 C-4.34 1 -3.68 1 -3 1 C-2.01 1.99 -2.01 1.99 -1 3 C-0.67 2.01 -0.34 1.02 0 0 Z " fill="#F1AC4A" transform="translate(340,435)"/>
<path d="M0 0 C7.52786571 2.56602031 13.2730116 9.09816962 17 16 C19.19841421 21.8624379 20.60806888 27.75285553 21 34 C21.05285156 34.78117187 21.10570313 35.56234375 21.16015625 36.3671875 C21.62055078 49.21820016 16.34518791 57.70001347 8 67 C3.85050553 70.83591229 -0.74466452 73.8728404 -6 76 C-6.66 75.67 -7.32 75.34 -8 75 C-7.7525 73.9171875 -7.7525 73.9171875 -7.5 72.8125 C-6.91977639 70.02484197 -6.91977639 70.02484197 -7 67.25 C-7 65 -7 65 -6 64 C-6 62.906875 -6 61.81375 -6 60.6875 C-6 57.66561609 -5.74283189 55.82487772 -5 53 C-4.80893499 51.66602787 -4.64311697 50.32824581 -4.5 48.98828125 C-4.4175 48.22966797 -4.335 47.47105469 -4.25 46.68945312 C-4.1675 45.90505859 -4.085 45.12066406 -4 44.3125 C-3.74992099 41.99340795 -3.49984198 39.6743159 -3.24975586 37.35522461 C-3.07841097 35.73942387 -2.9128582 34.12300152 -2.75219727 32.50610352 C-2.62929321 31.30812134 -2.62929321 31.30812134 -2.50390625 30.0859375 C-2.39671265 29.00578369 -2.39671265 29.00578369 -2.28735352 27.90380859 C-1.91396988 25.43002305 -0.9367041 23.31053678 0 21 C0.03920815 19.00038436 0.04443347 16.99950636 0 15 C0.33 14.34 0.66 13.68 1 13 C1.2275015 11.12943209 1.40962811 9.25314042 1.5625 7.375 C1.64628906 6.37210938 1.73007813 5.36921875 1.81640625 4.3359375 C1.87699219 3.56507813 1.93757813 2.79421875 2 2 C1.34 2 0.68 2 0 2 C0 1.34 0 0.68 0 0 Z " fill="#6C87F0" transform="translate(105,149)"/>
<path d="M0 0 C11.7891181 4.03576344 20.81026541 11.26332475 26.625 22.31640625 C30.98403057 31.73707429 32.6563583 41.42478834 29.3125 51.50390625 C28.82931077 52.78122592 28.33576137 54.05497258 27.8125 55.31640625 C25.5 54.69140625 25.5 54.69140625 22.8125 53.31640625 C21.125 50.25390625 21.125 50.25390625 19.8125 47.31640625 C18.8225 46.82140625 18.8225 46.82140625 17.8125 46.31640625 C17.8125 45.65640625 17.8125 44.99640625 17.8125 44.31640625 C16.1625 43.65640625 14.5125 42.99640625 12.8125 42.31640625 C12.8125 40.99640625 12.8125 39.67640625 12.8125 38.31640625 C12.1525 38.31640625 11.4925 38.31640625 10.8125 38.31640625 C10.1525 37.32640625 9.4925 36.33640625 8.8125 35.31640625 C8.11125 34.65640625 7.41 33.99640625 6.6875 33.31640625 C4.8125 31.31640625 4.8125 31.31640625 4.8125 28.31640625 C3.8225 27.98640625 2.8325 27.65640625 1.8125 27.31640625 C1.14583333 25.98307292 0.47916667 24.64973958 -0.1875 23.31640625 C-1.51598691 22.30997677 -2.84900329 21.30948446 -4.1875 20.31640625 C-4.5175 19.32640625 -4.8475 18.33640625 -5.1875 17.31640625 C-5.8475 16.98640625 -6.5075 16.65640625 -7.1875 16.31640625 C-7.8475 15.32640625 -8.5075 14.33640625 -9.1875 13.31640625 C-10.1775 13.31640625 -11.1675 13.31640625 -12.1875 13.31640625 C-12.8475 11.66640625 -13.5075 10.01640625 -14.1875 8.31640625 C-14.8475 8.31640625 -15.5075 8.31640625 -16.1875 8.31640625 C-17.24521739 6.68575861 -18.24023046 5.01359752 -19.1875 3.31640625 C-19.8475 2.32640625 -20.5075 1.33640625 -21.1875 0.31640625 C-15.56566979 -2.49450886 -6.02175683 -1.29143069 0 0 Z " fill="#F1BB57" transform="translate(441.1875,84.68359375)"/>
<path d="M0 0 C5.34198626 0.39416598 10.07648955 0.74925237 15 3 C16.66014616 3.36442233 18.32706064 3.69972883 20 4 C21.33488619 4.32705923 22.66850804 4.65938578 24 5 C24.09899561 11.03225939 24.17152907 17.06404427 24.21972656 23.09692383 C24.23982199 25.14843993 24.26710324 27.19989889 24.30175781 29.2512207 C24.35036669 32.20278025 24.37298952 35.15358148 24.390625 38.10546875 C24.41127014 39.02023483 24.43191528 39.93500092 24.45318604 40.87748718 C24.45467516 45.11882716 24.38502797 47.38054048 22.10058594 51.0559082 C18.82982786 54.08299405 16.48412274 54.20456908 12.0703125 54.5234375 C8.84353827 53.70761156 7.85375439 51.68451697 6 49 C5.1027832 46.14086914 5.1027832 46.14086914 4.55078125 43.03515625 C4.34259766 41.90529297 4.13441406 40.77542969 3.91992188 39.61132812 C3.71947266 38.44021484 3.51902344 37.26910156 3.3125 36.0625 C2.99442383 34.31163086 2.99442383 34.31163086 2.66992188 32.52539062 C2.09686547 29.35279127 1.54133193 26.17815068 1 23 C0.8153418 21.97302002 0.63068359 20.94604004 0.44042969 19.88793945 C0.06522189 17.42766618 -0.1167386 15.17601843 -0.09765625 12.6953125 C-0.09443359 11.94765625 -0.09121094 11.2 -0.08789062 10.4296875 C-0.07951172 9.66914063 -0.07113281 8.90859375 -0.0625 8.125 C-0.05798828 7.34125 -0.05347656 6.5575 -0.04882812 5.75 C-0.03714093 3.83329986 -0.01920908 1.91663952 0 0 Z " fill="#0C2CA3" transform="translate(125,334)"/>
<path d="M0 0 C0.33 0 0.66 0 1 0 C1.64328581 18.15495497 -2.82718188 33.32245253 -14.875 47.15234375 C-22.93449192 55.61806006 -32.90251592 61.29197206 -43 67 C-43 63.46894415 -42.49840789 63.11020995 -40.1875 60.625 C-35.6113949 55.67602708 -33.27447267 50.5578029 -31.375 44.125 C-31.15118652 43.38411133 -30.92737305 42.64322266 -30.69677734 41.87988281 C-29.23706391 36.72756597 -28.73011198 32.10019969 -28.625 26.75 C-28.40148186 20.54408471 -28.40148186 20.54408471 -26.5703125 18.0625 C-24.76130391 16.75815046 -23.04813254 15.87034808 -21 15 C-20.071875 14.401875 -19.14375 13.80375 -18.1875 13.1875 C-16 12 -16 12 -14 12 C-13.71125 11.4225 -13.4225 10.845 -13.125 10.25 C-11.5625 7.125 -11.5625 7.125 -10 4 C-9.01 4 -8.02 4 -7 4 C-7 4.66 -7 5.32 -7 6 C-4.54775306 5.89386164 -4.54775306 5.89386164 -2 5 C-0.62533375 2.52363988 -0.62533375 2.52363988 0 0 Z " fill="#1541F1" transform="translate(397,189)"/>
<path d="M0 0 C7.21004251 5.82939607 13.53686291 12.4968307 19 20 C17.79618552 22.49361571 16.54571278 24.68143083 15 27 C15.99 26.67 16.98 26.34 18 26 C18.495 27.485 18.495 27.485 19 29 C18.34 29.66 17.68 30.32 17 31 C16.67 30.67 16.34 30.34 16 30 C15.855625 30.598125 15.71125 31.19625 15.5625 31.8125 C15.1127561 33.56150404 14.57107659 35.28677023 14 37 C12.68 37 11.36 37 10 37 C10 37.66 10 38.32 10 39 C9.34 39 8.68 39 8 39 C7.505 39.99 7.505 39.99 7 41 C2.52941176 45.82352941 2.52941176 45.82352941 -1 47 C-1.33 47.99 -1.66 48.98 -2 50 C-4.5625 51.1875 -4.5625 51.1875 -7 52 C-7.37769531 51.42894531 -7.75539063 50.85789063 -8.14453125 50.26953125 C-13.95967332 41.70343205 -20.49713536 33.17774051 -28 26 C-27.505 24.515 -27.505 24.515 -27 23 C-26.01 23.33 -25.02 23.66 -24 24 C-24 24.66 -24 25.32 -24 26 C-23.01 26.66 -22.02 27.32 -21 28 C-17.92207284 26.25306837 -15.43931507 24.55547293 -13 22 C-12.34 21.67 -11.68 21.34 -11 21 C-11 20.01 -11 19.02 -11 18 C-10.01 18 -9.02 18 -8 18 C-7.34 17.34 -6.68 16.68 -6 16 C-5.34 16 -4.68 16 -4 16 C-4.66 14.68 -5.32 13.36 -6 12 C-4.35 11.67 -2.7 11.34 -1 11 C-0.67 12.65 -0.34 14.3 0 16 C3.24849977 14.27773504 3.24849977 14.27773504 4 11 C2.83952393 9.10543489 1.46018344 7.51516489 0.03125 5.81640625 C-1 4 -1 4 -0.65625 1.77734375 C-0.4396875 1.19082031 -0.223125 0.60429688 0 0 Z " fill="#0F37D5" transform="translate(358,121)"/>
<path d="M0 0 C0.74958984 0.00902344 1.49917969 0.01804688 2.27148438 0.02734375 C4.11862654 0.05087422 5.96560412 0.08674439 7.8125 0.125 C8.3659764 2.20053648 8.8125 3.96865964 8.8125 6.125 C9.8025 6.785 10.7925 7.445 11.8125 8.125 C11.29166667 10.11067708 10.77083333 12.09635417 10.25 14.08203125 C9.7077993 16.26570009 9.7077993 16.26570009 9.8125 19.125 C9.626875 19.785 9.44125 20.445 9.25 21.125 C8.59197007 23.31616616 8.59197007 23.31616616 9.8125 26.125 C9.17329057 28.13394394 8.50210962 30.13279443 7.8125 32.125 C7.19146682 35.6027858 6.8125 38.84187502 6.8125 42.375 C6.8125 45.125 6.8125 45.125 5.8125 48.125 C5.46234951 49.78821482 5.13052943 51.45534549 4.8125 53.125 C4.503125 54.3934375 4.503125 54.3934375 4.1875 55.6875 C3.66056503 58.06583948 3.66056503 58.06583948 4.3125 60.125 C4.96639177 62.74056707 4.39861627 64.49889463 3.8125 67.125 C3.43363651 68.83248067 3.05860706 70.54081677 2.6875 72.25 C2.49929687 73.09820312 2.31109375 73.94640625 2.1171875 74.8203125 C1.62089914 77.27992623 1.62089914 77.27992623 2.8125 80.125 C2.1525 81.115 1.4925 82.105 0.8125 83.125 C-5.26775644 83.97150277 -11.54075804 83.63466309 -17.1875 81.125 C-12.5625 77.125 -12.5625 77.125 -9.1875 77.125 C-9.5175 76.135 -9.8475 75.145 -10.1875 74.125 C-9.52083333 72.79166667 -8.85416667 71.45833333 -8.1875 70.125 C-8.5175 69.135 -8.8475 68.145 -9.1875 67.125 C-8.5275 66.135 -7.8675 65.145 -7.1875 64.125 C-7.8475 64.125 -8.5075 64.125 -9.1875 64.125 C-9.49031114 58.97721058 -8.96765763 56.41107635 -6.1875 52.125 C-6.0915401 48.20577874 -6.0915401 48.20577874 -6.6875 44.6875 C-7.7605659 37.04190544 -7.7605659 37.04190544 -5.625 33.625 C-3.8110013 30.47021966 -4.30463396 29.57620361 -5.1875 26.125 C-5.29442192 23.45195198 -5.22999402 20.80212346 -5.1875 18.125 C-5.1875 16.805 -5.1875 15.485 -5.1875 14.125 C-4.548125 13.196875 -3.90875 12.26875 -3.25 11.3125 C-0.96837967 7.78635949 -0.51884755 5.26684443 -0.1875 1.125 C-5.6325 1.62 -5.6325 1.62 -11.1875 2.125 C-7.39586973 -0.40275351 -4.37875969 -0.09943035 0 0 Z " fill="#4E6AD6" transform="translate(83.1875,142.875)"/>
<path d="M0 0 C2.90311491 1.62857665 3.64305772 2.80220711 4.58203125 5.953125 C5.06676575 9.65003342 4.71739353 12.04044063 2.4609375 15.05859375 C-0.22381432 17.56784059 -3.06762065 19.79387834 -6 22 C-6.75087891 22.57621094 -7.50175781 23.15242188 -8.27539062 23.74609375 C-15.92352043 29.6126592 -23.65687116 35.35749524 -31.5 40.9609375 C-32.3146875 41.54407715 -33.129375 42.1272168 -33.96875 42.72802734 C-36 44 -36 44 -38 44 C-37.4910781 41.45539052 -36.9812399 38.91245285 -36.4375 36.375 C-35.90941879 33.91076672 -35.90941879 33.91076672 -36 31 C-36.66 31 -37.32 31 -38 31 C-37.9071875 29.88625 -37.9071875 29.88625 -37.8125 28.75 C-38.03362674 25.50680777 -39.07188738 24.51492951 -41 22 C-40.505 20.515 -40.505 20.515 -40 19 C-37.9375 18.3125 -37.9375 18.3125 -36 18 C-36 17.34 -36 16.68 -36 16 C-36.66 15.34 -37.32 14.68 -38 14 C-36.87078125 13.48953125 -36.87078125 13.48953125 -35.71875 12.96875 C-28.22593789 9.55376111 -28.22593789 9.55376111 -20.890625 5.8203125 C-7.26281118 -1.45256224 -7.26281118 -1.45256224 0 0 Z " fill="#0C2BA0" transform="translate(453,276)"/>
<path d="M0 0 C0.70640625 0.22816406 1.4128125 0.45632812 2.140625 0.69140625 C7.66556937 2.59468433 12.82170652 5.31535195 18 8 C14.7264379 9.00902738 11.96902638 8.98351964 8.5625 8.8125 C-2.8186187 8.71522548 -13.74814639 13.11058805 -22.875 19.75 C-26 22 -26 22 -28 22 C-28 20 -28 20 -26.5 18.375 C-26.005 17.92125 -25.51 17.4675 -25 17 C-25.66 16.67 -26.32 16.34 -27 16 C-27.495 16.495 -27.495 16.495 -28 17 C-29.98 15.68 -31.96 14.36 -34 13 C-34.66 14.32 -35.32 15.64 -36 17 C-36.33 16.01 -36.66 15.02 -37 14 C-38.2065625 14.7734375 -38.2065625 14.7734375 -39.4375 15.5625 C-47.09261726 18.65140696 -55.40851455 15.18985157 -63 13 C-47.6736011 -4.36991876 -21.02124354 -7.45361086 0 0 Z " fill="#1742F1" transform="translate(216,161)"/>
<path d="M0 0 C6.1679753 2.8011163 12.21239428 7.72788714 15 14 C15 14.99 15 15.98 15 17 C16.27754554 19.0360882 17.60699818 21.04109119 19 23 C18.1875 24.9375 18.1875 24.9375 17 27 C16.01 27.33 15.02 27.66 14 28 C13.34 26.35 12.68 24.7 12 23 C11.01 23.66 10.02 24.32 9 25 C9.66 25.99 10.32 26.98 11 28 C10.401875 28.144375 9.80375 28.28875 9.1875 28.4375 C7.43849596 28.8872439 5.71322977 29.42892341 4 30 C3.7525 30.5775 3.505 31.155 3.25 31.75 C0.89473754 35.98947243 -3.48736556 38.49578852 -8 40 C-8 39.34 -8 38.68 -8 38 C-9.485 37.505 -9.485 37.505 -11 37 C-11.33 36.34 -11.66 35.68 -12 35 C-13.485 35.495 -13.485 35.495 -15 36 C-15.2475 35.38125 -15.495 34.7625 -15.75 34.125 C-16.80004165 31.88950792 -16.80004165 31.88950792 -18.8125 31.125 C-22.02781616 29.47140883 -23.74174572 26.77938989 -26 24 C-26.99 23.34 -27.98 22.68 -29 22 C-28.505 20.515 -28.505 20.515 -28 19 C-26.68 19 -25.36 19 -24 19 C-23.67 18.01 -23.34 17.02 -23 16 C-22.01 16.66 -21.02 17.32 -20 18 C-20.33 17.01 -20.66 16.02 -21 15 C-19.39125 14.87625 -19.39125 14.87625 -17.75 14.75 C-13.64911442 13.92982288 -12.50161575 13.24283524 -10 10 C-8.76487921 7.86690808 -8.76487921 7.86690808 -8 6 C-7.38125 6.165 -6.7625 6.33 -6.125 6.5 C-4.03936614 7.07634644 -4.03936614 7.07634644 -2 7 C-1.855625 6.030625 -1.71125 5.06125 -1.5625 4.0625 C-1 1 -1 1 0 0 Z " fill="#0C33C8" transform="translate(344,110)"/>
<path d="M0 0 C0.33 0 0.66 0 1 0 C1.05428973 2.22889496 1.09292338 4.45817471 1.125 6.6875 C1.14820313 7.92886719 1.17140625 9.17023438 1.1953125 10.44921875 C1.00896059 13.83709655 0.58000739 16.02229376 -1 19 C-1.66 19.33 -2.32 19.66 -3 20 C-3.66 20.66 -4.32 21.32 -5 22 C-5.639375 21.814375 -6.27875 21.62875 -6.9375 21.4375 C-7.618125 21.293125 -8.29875 21.14875 -9 21 C-10.77190909 22.35444301 -10.77190909 22.35444301 -12 24 C-12.99 23.01 -13.98 22.02 -15 21 C-15.33 21.66 -15.66 22.32 -16 23 C-18.25 23.5625 -18.25 23.5625 -21 24 C-21.886875 24.185625 -22.77375 24.37125 -23.6875 24.5625 C-27.34662377 25.25476666 -30.44458742 25.18513753 -34 24 C-34.99 24.495 -34.99 24.495 -36 25 C-36.66 24.67 -37.32 24.34 -38 24 C-38.33 24.66 -38.66 25.32 -39 26 C-42.27444367 27.09148122 -45.01747957 27.01417097 -48.4375 26.96484375 C-49.283125 26.95582031 -50.12875 26.94679688 -51 26.9375 C-51.845625 26.92589844 -52.69125 26.91429687 -53.5625 26.90234375 C-55.86656466 26.99465403 -57.77812408 27.43503582 -60 28 C-60.7425 27.835 -61.485 27.67 -62.25 27.5 C-67.48734807 26.5477549 -72.32063845 27.44667354 -77 30 C-81.40774487 21.738041 -81.40774487 21.738041 -82 17 C-78.71303767 16.20046862 -77.28976808 15.90341064 -74 17 C-73.34 16.34 -72.68 15.68 -72 15 C-71.01 15.66 -70.02 16.32 -69 17 C-68.34 16.34 -67.68 15.68 -67 15 C-64.6670386 14.95833998 -62.3329614 14.95833998 -60 15 C-59.34 14.67 -58.68 14.34 -58 14 C-57.34 14.66 -56.68 15.32 -56 16 C-53.04337034 15.77256695 -51.44966312 15.38764062 -49.1875 13.4375 C-48.795625 12.963125 -48.40375 12.48875 -48 12 C-47.34 12.33 -46.68 12.66 -46 13 C-45.34 12.34 -44.68 11.68 -44 11 C-43.34 11.66 -42.68 12.32 -42 13 C-38.57176115 13.91832511 -38.57176115 13.91832511 -35 14 C-33.97895449 13.02149805 -32.9793879 12.02019573 -32 11 C-28.3125 10.8125 -28.3125 10.8125 -25 11 C-24.67 10.34 -24.34 9.68 -24 9 C-20.28400809 8.79913557 -19.22791555 8.8480563 -16 11 C-16 10.34 -16 9.68 -16 9 C-15.34 9 -14.68 9 -14 9 C-13.67 8.34 -13.34 7.68 -13 7 C-12.01 7.99 -12.01 7.99 -11 9 C-8.35090693 9.83655571 -6.54379179 10.10875836 -3.8125 9.5625 C-0.83394687 6.99478179 -0.73376883 3.79113894 0 0 Z " fill="#F29D3C" transform="translate(343,417)"/>
<path d="M0 0 C0.33 0 0.66 0 1 0 C1.00257813 1.24394531 1.00515625 2.48789062 1.0078125 3.76953125 C1.27736779 19.5416868 5.65638057 28.82558092 16.94140625 39.90625 C21.30468417 43.93651845 25.58033257 46.58050561 31 49 C31 49.66 31 50.32 31 51 C29.68 50.67 28.36 50.34 27 50 C27.309375 50.845625 27.61875 51.69125 27.9375 52.5625 C29.01901328 56.06151355 29.53830196 59.37237256 30 63 C30.43105361 65.31691317 30.8641 67.56210001 31.5625 69.8125 C32.25509434 73.27547169 32.17097956 76.4664224 32 80 C31.01 80.99 31.01 80.99 30 82 C14.38088088 70.61989025 4.80211103 56.03005315 1 37 C-0.02902288 28.59074736 -0.12743059 20.2109547 -0.0625 11.75 C-0.05798828 10.61175781 -0.05347656 9.47351563 -0.04882812 8.30078125 C-0.03720214 5.53379591 -0.02086431 2.76692842 0 0 Z " fill="#1742F0" transform="translate(218,281)"/>
<path d="M0 0 C3.17713961 2.15225587 5.86387198 4.23711894 8.5625 7 C10.62384745 9.54503889 10.62384745 9.54503889 12.9375 9.3125 C13.2675 11.2925 13.5975 13.2725 13.9375 15.3125 C14.9275 15.6425 15.9175 15.9725 16.9375 16.3125 C18.31618281 17.94185241 19.65024093 19.60999607 20.9375 21.3125 C21.5975 21.9725 22.2575 22.6325 22.9375 23.3125 C23.2675 24.3025 23.5975 25.2925 23.9375 26.3125 C24.5975 26.6425 25.2575 26.9725 25.9375 27.3125 C26.411875 28.116875 26.88625 28.92125 27.375 29.75 C28.83414045 32.5480972 28.83414045 32.5480972 31.9375 34.3125 C31.9375 35.3025 31.9375 36.2925 31.9375 37.3125 C32.5975 37.3125 33.2575 37.3125 33.9375 37.3125 C33.9375 37.9725 33.9375 38.6325 33.9375 39.3125 C34.9275 39.8075 34.9275 39.8075 35.9375 40.3125 C36.4325 40.828125 36.9275 41.34375 37.4375 41.875 C38.83189669 43.54313512 38.83189669 43.54313512 40.9375 43.3125 C41.370625 44.405625 41.80375 45.49875 42.25 46.625 C43.44764026 49.42702627 44.55414785 51.34364387 46.9375 53.3125 C47.5975 53.9725 48.2575 54.6325 48.9375 55.3125 C47.2875 58.2825 45.6375 61.2525 43.9375 64.3125 C42.6175 64.3125 41.2975 64.3125 39.9375 64.3125 C39.4425 62.3325 39.4425 62.3325 38.9375 60.3125 C38.2775 60.3125 37.6175 60.3125 36.9375 60.3125 C35.60416667 58.3125 34.27083333 56.3125 32.9375 54.3125 C32.2775 54.3125 31.6175 54.3125 30.9375 54.3125 C28.93004991 52.30504991 28.16213972 50.83381708 26.9375 48.3125 C25.96366054 46.63041365 24.96054948 44.96511839 23.9375 43.3125 C23.31875 42.301875 22.7 41.29125 22.0625 40.25 C19.92998426 37.3021106 17.76380477 35.55904995 14.9375 33.3125 C13.93181758 31.64925599 12.93085201 29.98313747 11.9375 28.3125 C10.9475 27.9825 9.9575 27.6525 8.9375 27.3125 C8.9375 26.6525 8.9375 25.9925 8.9375 25.3125 C8.2775 24.9825 7.6175 24.6525 6.9375 24.3125 C6.4734375 22.8275 6.4734375 22.8275 6 21.3125 C5.649375 20.3225 5.29875 19.3325 4.9375 18.3125 C3.9475 17.9825 2.9575 17.6525 1.9375 17.3125 C-1.11476383 14.26023617 -3.14258807 11.15232386 -5.0625 7.3125 C-5.7225 6.6525 -6.3825 5.9925 -7.0625 5.3125 C-7.0625 3.9925 -7.0625 2.6725 -7.0625 1.3125 C-2.6625 -0.8875 -2.6625 -0.8875 0 0 Z " fill="#F0CA64" transform="translate(420.0625,85.6875)"/>
<path d="M0 0 C2.0625 0.1875 2.0625 0.1875 4 1 C5.58682595 5.76047785 3.81601958 9.74254202 2.4375 14.4375 C1.32332722 18.43668057 0.79136615 21.82732303 1 26 C0.67 26.99 0.34 27.98 0 29 C0.33 29.99 0.66 30.98 1 32 C0.3451992 34.00391625 -0.32318977 36.00340982 -1 38 C-1.34784276 41.32822282 -1.50044304 44.63450314 -1.65625 47.9765625 C-1.98619457 50.87857496 -2.61669548 52.487919 -4 55 C-4.16750414 57.66709069 -4.16750414 57.66709069 -4 60 C-5.32 60 -6.64 60 -8 60 C-14.38350503 51.97969881 -18.7196455 40.25780417 -18 30 C-17.5032356 27.46068836 -16.91668828 24.93758104 -16.25 22.4375 C-15.92515625 21.17808594 -15.6003125 19.91867188 -15.265625 18.62109375 C-13.30060996 12.99896738 -10.43763929 9.03195956 -5.875 5.25 C-3.83680641 3.54253217 -1.88128207 1.88128207 0 0 Z " fill="#213EAB" transform="translate(59,152)"/>
<path d="M0 0 C-0.33 3.3 -0.66 6.6 -1 10 C-1.66 10 -2.32 10 -3 10 C-2.87431641 10.90492188 -2.87431641 10.90492188 -2.74609375 11.828125 C-2.64425781 12.62734375 -2.54242188 13.4265625 -2.4375 14.25 C-2.33308594 15.03890625 -2.22867188 15.8278125 -2.12109375 16.640625 C-2 19 -2 19 -2.53515625 21.109375 C-3.22844835 23.20396683 -3.22844835 23.20396683 -2 26 C-2.66 26.99 -3.32 27.98 -4 29 C-4 29.99 -4 30.98 -4 32 C-4.31595508 33.67004829 -4.65179959 35.33637583 -5 37 C-5.67799438 40.76663544 -6.06321501 44.18783642 -5.9296875 48.015625 C-5.83445168 51.90668841 -5.9722303 54.90362281 -7.0625 58.6875 C-8.24497521 61.93501339 -8.24497521 61.93501339 -7.4375 65.0625 C-6.86735955 68.89058588 -8.05960207 70.74013147 -10 74 C-14.89157798 72.7771055 -17.34618634 71.3522544 -20 67 C-19.67 66.01 -19.34 65.02 -19 64 C-18.24649724 61.26855249 -17.78739996 58.63004605 -17.5 55.8125 C-17.41621094 55.03003906 -17.33242188 54.24757812 -17.24609375 53.44140625 C-17.08317278 51.82512682 -16.92939121 50.20789774 -16.78515625 48.58984375 C-16.20319206 42.47411481 -16.20319206 42.47411481 -14.875 39.375 C-13.74401865 36.89320594 -13.74401865 36.89320594 -14.5 33.6875 C-15.10158599 29.25080329 -14.29799492 26.210163 -13 22 C-11.72976781 17.66626665 -10.65435956 13.47145703 -10 9 C-10.66 9 -11.32 9 -12 9 C-12.66 8.34 -13.32 7.68 -14 7 C-16.64 9.64 -19.28 12.28 -22 15 C-22 12 -22 12 -20.75 10.3515625 C-14.52937602 4.21425045 -9.12931118 -0.95096991 0 0 Z " fill="#334EBA" transform="translate(73,146)"/>
<path d="M0 0 C0.66 0.33 1.32 0.66 2 1 C2.61721924 0.81018555 3.23443848 0.62037109 3.87036133 0.42480469 C6.73118823 -0.14585206 7.66302947 0.6295127 10.07421875 2.203125 C10.82380859 2.68910156 11.57339844 3.17507812 12.34570312 3.67578125 C13.11849609 4.19527344 13.89128906 4.71476562 14.6875 5.25 C15.47189453 5.75402344 16.25628906 6.25804688 17.06445312 6.77734375 C22.86610315 10.59830945 22.86610315 10.59830945 24 14 C19.25 18.875 19.25 18.875 17 20 C16.505 18.515 16.505 18.515 16 17 C15.505 18.485 15.505 18.485 15 20 C12.875 21.4375 12.875 21.4375 10 23 C5.23212244 25.58992607 5.23212244 25.58992607 0.9375 28.875 C-1 30 -1 30 -3.796875 29.34765625 C-7.31134374 27.86900782 -9.42450621 26.17128019 -12.1875 23.5625 C-13.02667969 22.78003906 -13.86585938 21.99757813 -14.73046875 21.19140625 C-16.5053499 19.47762256 -18.26681309 17.75576915 -20 16 C-19.34 16 -18.68 16 -18 16 C-17.67 15.34 -17.34 14.68 -17 14 C-16.01 13.34 -15.02 12.68 -14 12 C-14 10.68 -14 9.36 -14 8 C-11.03 8.495 -11.03 8.495 -8 9 C-8 8.34 -8 7.68 -8 7 C-7.195625 6.71125 -6.39125 6.4225 -5.5625 6.125 C-2.8673532 5.26737432 -2.8673532 5.26737432 -2 3 C-1.34 3 -0.68 3 0 3 C0 2.01 0 1.02 0 0 Z " fill="#0B2CAC" transform="translate(288,73)"/>
<path d="M0 0 C0.66 0.66 1.32 1.32 2 2 C-6.4920428 12.75840792 -16.26242713 18.64918852 -30.04296875 20.3828125 C-40.42585173 20.79428739 -50.33434162 17.64275429 -59 12 C-58.01 11.67 -57.02 11.34 -56 11 C-55.34 10.01 -54.68 9.02 -54 8 C-53.21625 8.20625 -52.4325 8.4125 -51.625 8.625 C-50.75875 8.74875 -49.8925 8.8725 -49 9 C-48.34 8.34 -47.68 7.68 -47 7 C-44.72265625 6.5859375 -44.72265625 6.5859375 -42.0625 6.375 C-41.18722656 6.30023438 -40.31195313 6.22546875 -39.41015625 6.1484375 C-37.609504 6.03753833 -35.80406406 6 -34 6 C-32.2675 5.7525 -32.2675 5.7525 -30.5 5.5 C-27.0305675 5.00436679 -24.54161776 4.88225701 -21.125 5.625 C-17.63568674 6.04371759 -16.16775602 5.33379201 -13 4 C-10.9375 4.4375 -10.9375 4.4375 -9 5 C-5.64944193 4.59387175 -4.24236212 3.44621322 -2 1 C-1.34 0.67 -0.68 0.34 0 0 Z " fill="#F1BB57" transform="translate(335,446)"/>
<path d="M0 0 C8.80731478 -1.01622863 15.58924444 2.77164578 22.59375 7.8984375 C31.81601437 15.67588045 37.18884012 25.65234807 38.24609375 37.8359375 C38.24933716 39.8922593 38.13909253 41.94838524 38 44 C35.1875 43.9375 35.1875 43.9375 32 43 C30.3125 39.625 30.3125 39.625 29 36 C27.56249809 34.31201173 27.56249809 34.31201173 26 33 C25.525625 32.360625 25.05125 31.72125 24.5625 31.0625 C22.01877784 27.70478675 20.04630527 25.34876842 16 24 C15.15625 22.2578125 15.15625 22.2578125 14.5 20.125 C13.52148474 16.9681234 12.53304035 15.15825377 10 13 C9.34 12.67 8.68 12.34 8 12 C7.02300255 10.24140458 6.0472472 8.48206347 5.0859375 6.71484375 C3.7358271 4.58283488 2.07056092 3.40502348 0 2 C0 1.34 0 0.68 0 0 Z " fill="#F1AD4B" transform="translate(434,85)"/>
<path d="M0 0 C0.99 0.495 0.99 0.495 2 1 C1.67 1.66 1.34 2.32 1 3 C0.67 2.01 0.34 1.02 0 0 Z M-6 2 C-4 2 -2 2 0 2 C2.1875 4.5 2.1875 4.5 4 7 C4.66 6.01 5.32 5.02 6 4 C6.66 4 7.32 4 8 4 C8.14528105 7.74959217 8.23406281 11.49846105 8.3125 15.25 C8.35439453 16.31347656 8.39628906 17.37695312 8.43945312 18.47265625 C8.56298481 26.32927154 8.56298481 26.32927154 5.734375 29.69921875 C1.57026053 31.68014749 -0.40252246 31.65678251 -5 31 C-9.35929583 27.67316897 -9.89643557 23.0951616 -10.6953125 17.9375 C-11.14396924 13.61198889 -11.169533 9.34192858 -11 5 C-10.01 5 -9.02 5 -8 5 C-7.34 4.01 -6.68 3.02 -6 2 Z " fill="#092899" transform="translate(140,357)"/>
<path d="M0 0 C1.32 0.33 2.64 0.66 4 1 C4 3.6705913 3.69145079 5.46468045 3 8 C2.835 8.66 2.67 9.32 2.5 10 C2.19050606 11.23797577 1.86098174 12.47135879 1.5 13.6953125 C0.83718089 16.75049433 0.68784771 19.75538632 0.5 22.875 C0.23125812 27.31883898 -0.19627967 31.61972421 -1 36 C-1.66 36 -2.32 36 -3 36 C-7.0704982 24.93333302 -8.03369535 17.24033936 -4 6 C-2.81345174 3.78000649 -1.55892193 1.98896935 0 0 Z " fill="#1534A6" transform="translate(48,165)"/>
<path d="M0 0 C7.92812122 2.76367606 13.99202032 8.89462984 18.13671875 16.1015625 C19.31456358 18.69175521 19.78803142 21.17375228 20 24 C19.01 24 18.02 24 17 24 C17 22.68 17 21.36 17 20 C16.01 20.33 15.02 20.66 14 21 C13.401875 20.071875 12.80375 19.14375 12.1875 18.1875 C10.50459208 15.73526274 9.14407647 13.97255035 7 12 C3.73699429 8.90014457 0.98296946 6.07610388 -1 2 C-0.67 1.34 -0.34 0.68 0 0 Z " fill="#F1A342" transform="translate(449,89)"/>
<path d="M0 0 C0.99 0.33 1.98 0.66 3 1 C2.67 1.99 2.34 2.98 2 4 C2 4.99 2 5.98 2 7 C1.67558396 8.66842534 1.34060811 10.33480481 1 12 C0.43254571 15.4677762 0 18.73371364 0 22.25 C0 25 0 25 -1 28 C-1.34820041 29.66362417 -1.68404492 31.32995171 -2 33 C-2.99 33 -3.98 33 -5 33 C-4.814375 32.236875 -4.62875 31.47375 -4.4375 30.6875 C-3.77180827 27.91032625 -3.77180827 27.91032625 -5 25 C-4.690625 24.154375 -4.38125 23.30875 -4.0625 22.4375 C-2.86246716 18.55504081 -2.88314426 15.39223407 -3.02734375 11.3671875 C-3.00062956 9.05450224 -2.59451221 7.2213557 -2 5 C-2 4.01 -2 3.02 -2 2 C-1.34 1.34 -0.68 0.68 0 0 Z " fill="#5570DD" transform="translate(90,163)"/>
<path d="M0 0 C0.99 0 1.98 0 3 0 C3.66 2.31 4.32 4.62 5 7 C3.1875 9 3.1875 9 1 11 C0.01 11 -0.98 11 -2 11 C-2.66 10.34 -3.32 9.68 -4 9 C-3.525625 8.443125 -3.05125 7.88625 -2.5625 7.3125 C-0.87604004 4.81653926 -0.41046893 2.9553763 0 0 Z " fill="#1D45E5" transform="translate(389,165)"/>
<path d="M0 0 C2.32060475 3.61872081 2.08455821 6.35751003 1.6875 10.5625 C1.53861328 12.26599609 1.53861328 12.26599609 1.38671875 14.00390625 C1 17 1 17 0 20 C-0.66 20 -1.32 20 -2 20 C-3.13471754 16.59584738 -2.77072847 14.46827809 -2 11 C-1.73243042 8.66484728 -1.50149119 6.32834387 -1.28125 3.98828125 C-1 2 -1 2 0 0 Z " fill="#2845B1" transform="translate(56,186)"/>
<path d="M0 0 C0.33 0.99 0.66 1.98 1 3 C-5.75887425 5.07965362 -11.95559921 5.21133202 -19 5 C-19 4.01 -19 3.02 -19 2 C-16.36 2.66 -13.72 3.32 -11 4 C-10.67 3.34 -10.34 2.68 -10 2 C-9.67 2.33 -9.34 2.66 -9 3 C-8.34 2.34 -7.68 1.68 -7 1 C-3 1 -3 1 0 2 C0 1.34 0 0.68 0 0 Z " fill="#F0CC65" transform="translate(315,461)"/>
<path d="M0 0 C3.92878724 2.35727234 4.90245331 4.60981324 6 9 C6 9.99 6 10.98 6 12 C3.35247996 9.42215154 1.05567935 7.08351902 -1 4 C-0.625 1.8125 -0.625 1.8125 0 0 Z " fill="#183ED0" transform="translate(358,121)"/>
<path d="M0 0 C0 0.66 0 1.32 0 2 C-4.455 3.485 -4.455 3.485 -9 5 C-9.33 4.01 -9.66 3.02 -10 2 C-9.34 2 -8.68 2 -8 2 C-8 1.34 -8 0.68 -8 0 C-4.71023192 -1.09658936 -3.28696233 -0.79953138 0 0 Z " fill="#2244C8" transform="translate(359,352)"/>
<path d="M0 0 C1.32 0.66 2.64 1.32 4 2 C-3.90322581 7.2688172 -3.90322581 7.2688172 -8.4375 6.6875 C-8.953125 6.460625 -9.46875 6.23375 -10 6 C-9.01 6 -8.02 6 -7 6 C-7 5.34 -7 4.68 -7 4 C-4.69 3.34 -2.38 2.68 0 2 C0 1.34 0 0.68 0 0 Z " fill="#3556D5" transform="translate(332,360)"/>
<path d="M0 0 C0.66 0.66 1.32 1.32 2 2 C1.01 3.98 0.02 5.96 -1 8 C-2.98 6.68 -4.96 5.36 -7 4 C-6.34 3.67 -5.68 3.34 -5 3 C-4.34 3.33 -3.68 3.66 -3 4 C-2.67 3.34 -2.34 2.68 -2 2 C-1.34 1.34 -0.68 0.68 0 0 Z " fill="#1638B6" transform="translate(290,99)"/>
<path d="M0 0 C-4.00860251 2.67240167 -6.53305139 3.19374793 -11.3125 2.5625 C-12.199375 2.376875 -13.08625 2.19125 -14 2 C-14 1.67 -14 1.34 -14 1 C-4.58997722 -1.48063781 -4.58997722 -1.48063781 0 0 Z " fill="#3E58BA" transform="translate(352,317)"/>
<path d="M0 0 C0.99 0.33 1.98 0.66 3 1 C2.67 3.31 2.34 5.62 2 8 C1.01 8 0.02 8 -1 8 C-1.93065133 5.39417629 -2.14917407 4.35801776 -1.0625 1.75 C-0.711875 1.1725 -0.36125 0.595 0 0 Z " fill="#5470DD" transform="translate(85,203)"/>
<path d="M0 0 C-0.33 0.99 -0.66 1.98 -1 3 C-2.9375 3.75 -2.9375 3.75 -5 4 C-5.66 3.67 -6.32 3.34 -7 3 C-7 2.01 -7 1.02 -7 0 C-4.3333581 -1.33332095 -2.83319697 -0.67102033 0 0 Z " fill="#1938AD" transform="translate(418,292)"/>
<path d="M0 0 C1.125 1.6875 1.125 1.6875 2 4 C1.125 6.75 1.125 6.75 0 9 C-0.99 8.01 -1.98 7.02 -3 6 C-1.125 1.125 -1.125 1.125 0 0 Z " fill="#5470DD" transform="translate(84,213)"/>
<path d="M0 0 C1.65 0.99 3.3 1.98 5 3 C3.35 4.65 1.7 6.3 0 8 C-0.66 7.34 -1.32 6.68 -2 6 C-1.34 4.02 -0.68 2.04 0 0 Z " fill="#1738B4" transform="translate(306,81)"/>
<path d="M0 0 C0.99 0.495 0.99 0.495 2 1 C1.01 1.495 1.01 1.495 0 2 C0 1.34 0 0.68 0 0 Z M-5 1 C-3.35 1.33 -1.7 1.66 0 2 C-1.25 3.5625 -1.25 3.5625 -3 5 C-5.1875 4.6875 -5.1875 4.6875 -7 4 C-6.34 3.67 -5.68 3.34 -5 3 C-5 2.34 -5 1.68 -5 1 Z " fill="#1232AF" transform="translate(275,86)"/>
<path d="M0 0 C0.66 0.99 1.32 1.98 2 3 C1.34 4.32 0.68 5.64 0 7 C-0.99 6.67 -1.98 6.34 -3 6 C-3 3 -3 3 -1.5 1.3125 C-0.7575 0.6628125 -0.7575 0.6628125 0 0 Z " fill="#1F45DB" transform="translate(130,216)"/>
<path d="M0 0 C1.32 0.33 2.64 0.66 4 1 C4 1.66 4 2.32 4 3 C3.34 3 2.68 3 2 3 C1.67 3.66 1.34 4.32 1 5 C0.01 5.33 -0.98 5.66 -2 6 C-1.34 4.02 -0.68 2.04 0 0 Z " fill="#2048E3" transform="translate(136,196)"/>
<path d="M0 0 C0.99 0 1.98 0 3 0 C3.33 0.99 3.66 1.98 4 3 C3.01 4.485 3.01 4.485 2 6 C1.34 6 0.68 6 0 6 C-0.38218767 4.34385343 -0.71395102 2.67542976 -1 1 C-0.67 0.67 -0.34 0.34 0 0 Z " fill="#4662CF" transform="translate(72,211)"/>
</svg>
